<?xml version="1.0" encoding="utf-8"?>
<!-- Generator: Adobe Illustrator 16.0.0, SVG Export Plug-In . SVG Version: 6.00 Build 0)  -->
<!DOCTYPE svg PUBLIC "-//W3C//DTD SVG 1.1//EN" "http://www.w3.org/Graphics/SVG/1.1/DTD/svg11.dtd">
<svg version="1.1" id="Capa_1" xmlns="http://www.w3.org/2000/svg" xmlns:xlink="http://www.w3.org/1999/xlink" x="0px" y="0px"
	 width="130px" height="130px" viewBox="0 0 130 130" enable-background="new 0 0 130 130" xml:space="preserve">
<g>
	<polygon fill-rule="evenodd" clip-rule="evenodd" fill="#1A2E3C" points="52.713,113.818 38.902,113.819 65.123,100.688 
		91.654,113.819 77.699,113.818 78.435,124.999 52.263,124.999 	"/>
	<polygon fill-rule="evenodd" clip-rule="evenodd" fill="#1A2E3C" points="100.525,108.796 95.251,111.884 93.584,100.688 
		114.383,100.688 109.58,103.498 120.071,108.251 111.102,113.883 	"/>
	<polygon fill-rule="evenodd" clip-rule="evenodd" fill="#1A2E3C" points="113.014,94.001 114.246,97.618 98.186,90.858 
		109.84,84.686 110.93,87.884 122.416,87.885 125.002,93.999 	"/>
	<polygon fill-rule="evenodd" clip-rule="evenodd" fill="#1A2E3C" points="18.932,87.85 19.94,84.686 31.73,90.858 15.818,97.618 
		16.983,93.964 4.998,93.963 7.448,87.851 	"/>
	<polygon fill-rule="evenodd" clip-rule="evenodd" fill="#1A2E3C" points="20.698,103.468 15.884,100.688 36.683,100.688 
		35.271,111.882 29.871,108.763 19.411,113.848 10.317,108.219 	"/>
	<g>
		<rect x="39.889" y="81.958" fill-rule="evenodd" clip-rule="evenodd" fill="#1A2E3C" width="7.499" height="7.355"/>
		<rect x="61.22" y="81.958" fill-rule="evenodd" clip-rule="evenodd" fill="#1A2E3C" width="7.498" height="7.355"/>
		<rect x="82.551" y="81.958" fill-rule="evenodd" clip-rule="evenodd" fill="#1A2E3C" width="7.498" height="7.355"/>
		<rect x="38.809" y="89.153" fill-rule="evenodd" clip-rule="evenodd" fill="#1A2E3C" width="52.385" height="2.568"/>
		<rect x="38.809" y="80.19" fill-rule="evenodd" clip-rule="evenodd" fill="#1A2E3C" width="52.385" height="2.568"/>
		<rect x="43.073" y="56.997" fill-rule="evenodd" clip-rule="evenodd" fill="#1A2E3C" width="19.604" height="19.604"/>
		<rect x="67.322" y="56.997" fill-rule="evenodd" clip-rule="evenodd" fill="#1A2E3C" width="19.605" height="19.604"/>
		<rect x="43.073" y="32.751" fill-rule="evenodd" clip-rule="evenodd" fill="#1A2E3C" width="19.604" height="19.602"/>
		<rect x="67.322" y="32.751" fill-rule="evenodd" clip-rule="evenodd" fill="#1A2E3C" width="19.605" height="19.602"/>
	</g>
	<g>
		<path fill="#6EAD3B" d="M18.491,80.231V18.81c0-1.321,0.885-2.438,2.091-2.792l32.791-9.548c3.715-0.956,7.613-1.468,11.626-1.468
			c4.014,0,7.912,0.512,11.627,1.468l32.79,9.548c1.207,0.354,2.092,1.472,2.092,2.792v61.422h-5.811l-0.005-58.165
			c0-0.663-0.445-1.226-1.053-1.4l-28.014-8.169c-3.683-1.096-7.589-1.685-11.627-1.685s-7.943,0.589-11.626,1.685l-28.015,8.169
			c-0.606,0.174-1.053,0.737-1.053,1.4l0.003,58.165H18.491z"/>
	</g>
</g>
</svg>
