<?xml version="1.0" encoding="utf-8"?>
<!-- Generator: Adobe Illustrator 16.0.0, SVG Export Plug-In . SVG Version: 6.00 Build 0)  -->
<!DOCTYPE svg PUBLIC "-//W3C//DTD SVG 1.1//EN" "http://www.w3.org/Graphics/SVG/1.1/DTD/svg11.dtd">
<svg version="1.1" id="Capa_1" xmlns="http://www.w3.org/2000/svg" xmlns:xlink="http://www.w3.org/1999/xlink" x="0px" y="0px"
	 width="130px" height="130px" viewBox="0 0 130 130" enable-background="new 0 0 130 130" xml:space="preserve">
<g>
	<polygon fill-rule="evenodd" clip-rule="evenodd" fill="#FFFFFF" points="52.713,113.818 38.902,113.819 65.123,100.688 
		91.654,113.819 77.699,113.818 78.435,124.999 52.263,124.999 	"/>
	<polygon fill-rule="evenodd" clip-rule="evenodd" fill="#FFFFFF" points="100.526,108.796 95.251,111.884 93.584,100.688 
		114.384,100.688 109.581,103.498 120.071,108.251 111.103,113.883 	"/>
	<polygon fill-rule="evenodd" clip-rule="evenodd" fill="#FFFFFF" points="113.015,94.001 114.247,97.618 98.187,90.858 
		109.841,84.686 110.93,87.884 122.416,87.885 125.003,93.999 	"/>
	<polygon fill-rule="evenodd" clip-rule="evenodd" fill="#FFFFFF" points="18.932,87.85 19.939,84.686 31.73,90.858 15.818,97.618 
		16.983,93.964 4.998,93.963 7.448,87.851 	"/>
	<polygon fill-rule="evenodd" clip-rule="evenodd" fill="#FFFFFF" points="20.698,103.468 15.884,100.688 36.683,100.688 
		35.271,111.882 29.871,108.763 19.411,113.848 10.317,108.219 	"/>
	<rect x="39.889" y="81.958" fill-rule="evenodd" clip-rule="evenodd" fill="#FFFFFF" width="7.499" height="7.355"/>
	<rect x="61.22" y="81.958" fill-rule="evenodd" clip-rule="evenodd" fill="#FFFFFF" width="7.498" height="7.355"/>
	<rect x="82.551" y="81.958" fill-rule="evenodd" clip-rule="evenodd" fill="#FFFFFF" width="7.499" height="7.355"/>
	<rect x="38.809" y="89.153" fill-rule="evenodd" clip-rule="evenodd" fill="#FFFFFF" width="52.385" height="2.568"/>
	<rect x="38.809" y="80.19" fill-rule="evenodd" clip-rule="evenodd" fill="#FFFFFF" width="52.385" height="2.568"/>
	<rect x="43.073" y="56.998" fill-rule="evenodd" clip-rule="evenodd" fill="#FFFFFF" width="19.604" height="19.603"/>
	<rect x="67.323" y="56.998" fill-rule="evenodd" clip-rule="evenodd" fill="#FFFFFF" width="19.604" height="19.603"/>
	<rect x="43.073" y="32.751" fill-rule="evenodd" clip-rule="evenodd" fill="#FFFFFF" width="19.604" height="19.602"/>
	<rect x="67.323" y="32.751" fill-rule="evenodd" clip-rule="evenodd" fill="#FFFFFF" width="19.604" height="19.602"/>
	<path fill="#FFFFFF" d="M18.491,80.231V18.81c0-1.321,0.885-2.438,2.091-2.792l32.791-9.548c3.715-0.956,7.613-1.468,11.626-1.468
		c4.014,0,7.912,0.512,11.627,1.468l32.791,9.548c1.207,0.354,2.09,1.472,2.09,2.792l0.002,61.422h-5.812l-0.005-58.165
		c0-0.663-0.445-1.226-1.053-1.4l-28.014-8.169c-3.683-1.096-7.588-1.685-11.627-1.685c-4.038,0-7.943,0.589-11.626,1.685
		l-28.015,8.169c-0.606,0.174-1.053,0.737-1.053,1.4l0.003,58.165H18.491z"/>
</g>
</svg>
