<?xml version="1.0" encoding="utf-8"?>
<!-- Generator: Adobe Illustrator 16.0.0, SVG Export Plug-In . SVG Version: 6.00 Build 0)  -->
<!DOCTYPE svg PUBLIC "-//W3C//DTD SVG 1.1//EN" "http://www.w3.org/Graphics/SVG/1.1/DTD/svg11.dtd">
<svg version="1.1" id="Capa_1" xmlns="http://www.w3.org/2000/svg" xmlns:xlink="http://www.w3.org/1999/xlink" x="0px" y="0px"
	 width="130px" height="130px" viewBox="0 0 130 130" enable-background="new 0 0 130 130" xml:space="preserve">
<g>
	<g>
		<path fill="#FFFFFF" d="M61.104,38.018c-2.653,0.253-5.26,0.761-7.738,1.498L25.36,47.683c-0.607,0.175-1.052,0.737-1.052,1.399
			v29.429c0,22.465,18.213,40.678,40.682,40.678s40.684-18.213,40.684-40.678l0.008-19.925c-1.89,0.234-3.828,0.354-5.781,0.354
			C83.672,58.941,69.421,50.617,61.104,38.018z M111.498,51.459l-0.015,27.052c0,25.674-20.815,46.488-46.494,46.488
			s-46.495-20.814-46.495-46.488V45.827c0-1.321,0.884-2.438,2.09-2.792l32.781-9.545c3.478-0.895,7.116-1.4,10.859-1.461
			C71.143,44.613,84.523,53.13,99.899,53.13C103.987,53.13,107.775,52.581,111.498,51.459z"/>
		<path fill="none" stroke="#FFFFFF" stroke-width="0" stroke-miterlimit="3.8637" d="M61.104,38.018
			c-2.653,0.253-5.26,0.761-7.738,1.498L25.36,47.683c-0.607,0.175-1.052,0.737-1.052,1.399v29.429
			c0,22.465,18.213,40.678,40.682,40.678s40.684-18.213,40.684-40.678l0.008-19.925c-1.89,0.234-3.828,0.354-5.781,0.354
			C83.672,58.941,69.421,50.617,61.104,38.018z M111.498,51.459l-0.015,27.052c0,25.674-20.815,46.488-46.494,46.488
			s-46.495-20.814-46.495-46.488V45.827c0-1.321,0.884-2.438,2.09-2.792l32.781-9.545c3.478-0.895,7.116-1.4,10.859-1.461
			C71.143,44.613,84.523,53.13,99.899,53.13C103.987,53.13,107.775,52.581,111.498,51.459z"/>
	</g>
	<g>
		<path fill="#FFFFFF" d="M114.914,67.975l-0.054-17.531c0-27.528-22.316-41.833-49.848-41.833c-27.531,0-49.85,14.305-49.85,41.833
			l0.001,17.525c0.227-0.031,0.483-0.076,0.708-0.096l2.465,28.057C12.896,96.404,6.02,93.471,5.099,82.951
			c-0.73-8.342,2.688-12.42,6.745-14.119l-0.026-18.123C11.818,21.334,35.633,5,65.012,5c29.379,0,53.195,16.333,53.195,45.709
			v18.156c4.037,1.709,7.421,5.777,6.693,14.086c-0.695,7.945-4.753,11.564-9.055,12.654c-9.349,14.658-23.326,18.209-42.398,16.742
			c-1.8,1.307-5.336,1.814-9.177,1.137c-5.283-0.932-9.201-3.754-8.752-6.305c0.45-2.551,5.097-3.861,10.38-2.932
			c4.099,0.723,7.375,2.584,8.429,4.572c16.701,1.221,28.53-0.891,37.335-12.891l2.466-28.057
			C114.381,67.895,114.657,67.938,114.914,67.975z"/>
		<path fill="none" stroke="#FFFFFF" stroke-width="0" stroke-miterlimit="3.8637" d="M114.914,67.975l-0.054-17.531
			c0-27.528-22.316-41.833-49.848-41.833c-27.531,0-49.85,14.305-49.85,41.833l0.001,17.525c0.227-0.031,0.483-0.076,0.708-0.096
			l2.465,28.057C12.896,96.404,6.02,93.471,5.099,82.951c-0.73-8.342,2.688-12.42,6.745-14.119l-0.026-18.123
			C11.818,21.334,35.633,5,65.012,5c29.379,0,53.195,16.333,53.195,45.709v18.156c4.037,1.709,7.421,5.777,6.693,14.086
			c-0.695,7.945-4.753,11.564-9.055,12.654c-9.349,14.658-23.326,18.209-42.398,16.742c-1.8,1.307-5.336,1.814-9.177,1.137
			c-5.283-0.932-9.201-3.754-8.752-6.305c0.45-2.551,5.097-3.861,10.38-2.932c4.099,0.723,7.375,2.584,8.429,4.572
			c16.701,1.221,28.53-0.891,37.335-12.891l2.466-28.057C114.381,67.895,114.657,67.938,114.914,67.975z"/>
	</g>
</g>
</svg>
