<?xml version="1.0" encoding="utf-8"?>
<!-- Generator: Adobe Illustrator 16.0.0, SVG Export Plug-In . SVG Version: 6.00 Build 0)  -->
<!DOCTYPE svg PUBLIC "-//W3C//DTD SVG 1.1//EN" "http://www.w3.org/Graphics/SVG/1.1/DTD/svg11.dtd">
<svg version="1.1" id="Capa_1" xmlns="http://www.w3.org/2000/svg" xmlns:xlink="http://www.w3.org/1999/xlink" x="0px" y="0px"
	 width="130px" height="130px" viewBox="0 0 130 130" enable-background="new 0 0 130 130" xml:space="preserve">
<g>
	<g>
		<g>
			<g>
				<polygon fill-rule="evenodd" clip-rule="evenodd" fill="#1A2E3C" points="16.141,109.155 5,74.49 16.141,39.826 25.317,39.826 
					16.141,74.49 25.317,109.155 				"/>
				
					<polygon fill-rule="evenodd" clip-rule="evenodd" fill="none" stroke="#1A2E3C" stroke-width="0" stroke-miterlimit="3.8637" points="
					16.141,109.155 5,74.49 16.141,39.826 25.317,39.826 16.141,74.49 25.317,109.155 				"/>
			</g>
			<g>
				<polygon fill-rule="evenodd" clip-rule="evenodd" fill="#1A2E3C" points="29.778,109.155 20.6,74.49 29.778,39.826 
					35.81,39.826 26.634,74.49 35.81,109.155 				"/>
				
					<polygon fill-rule="evenodd" clip-rule="evenodd" fill="none" stroke="#1A2E3C" stroke-width="0" stroke-miterlimit="3.8637" points="
					29.778,109.155 20.6,74.49 29.778,39.826 35.81,39.826 26.634,74.49 35.81,109.155 				"/>
			</g>
			<g>
				<polygon fill-rule="evenodd" clip-rule="evenodd" fill="#1A2E3C" points="40.486,109.155 31.308,74.49 40.486,39.826 
					44.159,39.826 34.982,74.49 44.159,109.155 				"/>
				
					<polygon fill-rule="evenodd" clip-rule="evenodd" fill="none" stroke="#1A2E3C" stroke-width="0" stroke-miterlimit="3.8637" points="
					40.486,109.155 31.308,74.49 40.486,39.826 44.159,39.826 34.982,74.49 44.159,109.155 				"/>
			</g>
		</g>
		<g>
			<g>
				<polygon fill-rule="evenodd" clip-rule="evenodd" fill="#1A2E3C" points="59.425,5 70.566,39.665 59.425,74.33 50.249,74.33 
					59.425,39.665 50.249,5 				"/>
				
					<polygon fill-rule="evenodd" clip-rule="evenodd" fill="none" stroke="#1A2E3C" stroke-width="0" stroke-miterlimit="3.8637" points="
					59.425,5 70.566,39.665 59.425,74.33 50.249,74.33 59.425,39.665 50.249,5 				"/>
			</g>
			<g>
				<polygon fill-rule="evenodd" clip-rule="evenodd" fill="#1A2E3C" points="45.787,5 54.966,39.665 45.787,74.33 39.756,74.33 
					48.932,39.665 39.756,5 				"/>
				
					<polygon fill-rule="evenodd" clip-rule="evenodd" fill="none" stroke="#1A2E3C" stroke-width="0" stroke-miterlimit="3.8637" points="
					45.787,5 54.966,39.665 45.787,74.33 39.756,74.33 48.932,39.665 39.756,5 				"/>
			</g>
			<g>
				<polygon fill-rule="evenodd" clip-rule="evenodd" fill="#1A2E3C" points="35.08,5 44.259,39.665 35.08,74.33 31.407,74.33 
					40.583,39.665 31.407,5 				"/>
				
					<polygon fill-rule="evenodd" clip-rule="evenodd" fill="none" stroke="#1A2E3C" stroke-width="0" stroke-miterlimit="3.8637" points="
					35.08,5 44.259,39.665 35.08,74.33 31.407,74.33 40.583,39.665 31.407,5 				"/>
			</g>
		</g>
	</g>
	<g>
		<g>
			<path fill="#6EAD3B" d="M48.265,105.773h13.552c-0.561-2.623-0.389-4.549-0.27-5.805H46.706L48.265,105.773z"/>
			<path fill="none" stroke="#6EAD3B" stroke-width="0" stroke-miterlimit="3.8637" d="M48.265,105.773h13.552
				c-0.561-2.623-0.389-4.549-0.27-5.805H46.706L48.265,105.773z"/>
		</g>
		<g>
			<path fill-rule="evenodd" clip-rule="evenodd" fill="#6EAD3B" d="M79.513,91.758c-3.026,2.895-4.912,6.973-4.912,11.492
				c0,8.781,7.118,15.898,15.899,15.898c8.78,0,15.945-7.117,15.945-15.898c0,0,12.555-1.636,12.555-5.646
				c0-7.78-0.541-12.459-2.717-16.957c-0.479-0.99-3.039-1.232-3.039-1.232l-4.706-14.158c0,0-0.566-2.407-1.283-3.626
				c-1.075-1.826-3.731-3.094-3.731-3.094l-6.445-3.277l-16.25-36.486c0,0-1.764-3.87-4.707-5.353
				c-4.354-2.193-7.315-1.948-7.315-1.948l-1.95-5.891c0,0,8.088,0.311,12.637,2.063c3.855,1.484,6.292,6.871,6.292,6.871
				l15.883,36.189l6.922,3.478c0,0,2.656,1.268,3.73,3.094c0.718,1.219,1.284,3.626,1.284,3.626l4.705,14.158
				c0,0,2.084,0.042,2.563,1.033c2.175,4.496,4.128,17.899,4.128,25.679c0,4.012-13.479,7.256-13.479,7.256
				C108.99,118.234,100.512,125,90.5,125c-12.013,0-21.75-9.738-21.75-21.75c0-5.754,2.233-10.986,5.882-14.876L79.513,91.758z"/>
			
				<path fill-rule="evenodd" clip-rule="evenodd" fill="none" stroke="#6EAD3B" stroke-width="1.5" stroke-linecap="round" stroke-linejoin="round" stroke-miterlimit="3.8637" d="
				M79.513,91.758c-3.026,2.895-4.912,6.973-4.912,11.492c0,8.781,7.118,15.898,15.899,15.898c8.78,0,15.945-7.117,15.945-15.898
				c0,0,12.555-1.636,12.555-5.646c0-7.78-0.541-12.459-2.717-16.957c-0.479-0.99-3.039-1.232-3.039-1.232l-4.706-14.158
				c0,0-0.566-2.407-1.283-3.626c-1.075-1.826-3.731-3.094-3.731-3.094l-6.445-3.277l-16.25-36.486c0,0-1.764-3.87-4.707-5.353
				c-4.354-2.193-7.315-1.948-7.315-1.948l-1.95-5.891c0,0,8.088,0.311,12.637,2.063c3.855,1.484,6.292,6.871,6.292,6.871
				l15.883,36.189l6.922,3.478c0,0,2.656,1.268,3.73,3.094c0.718,1.219,1.284,3.626,1.284,3.626l4.705,14.158
				c0,0,2.084,0.042,2.563,1.033c2.175,4.496,4.128,17.899,4.128,25.679c0,4.012-13.479,7.256-13.479,7.256
				C108.99,118.234,100.512,125,90.5,125c-12.013,0-21.75-9.738-21.75-21.75c0-5.754,2.233-10.986,5.882-14.876L79.513,91.758z"/>
		</g>
	</g>
</g>
</svg>
