<?xml version="1.0" encoding="utf-8"?>
<!-- Generator: Adobe Illustrator 16.0.0, SVG Export Plug-In . SVG Version: 6.00 Build 0)  -->
<!DOCTYPE svg PUBLIC "-//W3C//DTD SVG 1.1//EN" "http://www.w3.org/Graphics/SVG/1.1/DTD/svg11.dtd">
<svg version="1.1" id="Capa_1" xmlns="http://www.w3.org/2000/svg" xmlns:xlink="http://www.w3.org/1999/xlink" x="0px" y="0px"
	 width="130px" height="130px" viewBox="0 0 130 130" enable-background="new 0 0 130 130" xml:space="preserve">
<g>
	<g>
		<g>
			<polygon fill-rule="evenodd" clip-rule="evenodd" fill="#FFFFFF" points="16.142,109.155 5,74.49 16.142,39.826 25.317,39.826 
				16.142,74.49 25.317,109.155 			"/>
			
				<polygon fill-rule="evenodd" clip-rule="evenodd" fill="none" stroke="#FFFFFF" stroke-width="0" stroke-miterlimit="3.8637" points="
				16.142,109.155 5,74.49 16.142,39.826 25.317,39.826 16.142,74.49 25.317,109.155 			"/>
		</g>
		<g>
			<polygon fill-rule="evenodd" clip-rule="evenodd" fill="#FFFFFF" points="29.779,109.155 20.601,74.49 29.779,39.826 
				35.811,39.826 26.635,74.49 35.811,109.155 			"/>
			
				<polygon fill-rule="evenodd" clip-rule="evenodd" fill="none" stroke="#FFFFFF" stroke-width="0" stroke-miterlimit="3.8637" points="
				29.779,109.155 20.601,74.49 29.779,39.826 35.811,39.826 26.635,74.49 35.811,109.155 			"/>
		</g>
		<g>
			<polygon fill-rule="evenodd" clip-rule="evenodd" fill="#FFFFFF" points="40.486,109.155 31.308,74.49 40.486,39.826 
				44.159,39.826 34.983,74.49 44.159,109.155 			"/>
			
				<polygon fill-rule="evenodd" clip-rule="evenodd" fill="none" stroke="#FFFFFF" stroke-width="0" stroke-miterlimit="3.8637" points="
				40.486,109.155 31.308,74.49 40.486,39.826 44.159,39.826 34.983,74.49 44.159,109.155 			"/>
		</g>
	</g>
	<g>
		<g>
			<polygon fill-rule="evenodd" clip-rule="evenodd" fill="#FFFFFF" points="59.426,5 70.567,39.665 59.426,74.33 50.25,74.33 
				59.426,39.665 50.25,5 			"/>
			
				<polygon fill-rule="evenodd" clip-rule="evenodd" fill="none" stroke="#FFFFFF" stroke-width="0" stroke-miterlimit="3.8637" points="
				59.426,5 70.567,39.665 59.426,74.33 50.25,74.33 59.426,39.665 50.25,5 			"/>
		</g>
		<g>
			<polygon fill-rule="evenodd" clip-rule="evenodd" fill="#FFFFFF" points="45.788,5 54.967,39.665 45.788,74.33 39.757,74.33 
				48.933,39.665 39.757,5 			"/>
			
				<polygon fill-rule="evenodd" clip-rule="evenodd" fill="none" stroke="#FFFFFF" stroke-width="0" stroke-miterlimit="3.8637" points="
				45.788,5 54.967,39.665 45.788,74.33 39.757,74.33 48.933,39.665 39.757,5 			"/>
		</g>
		<g>
			<polygon fill-rule="evenodd" clip-rule="evenodd" fill="#FFFFFF" points="35.081,5 44.259,39.665 35.081,74.33 31.408,74.33 
				40.584,39.665 31.408,5 			"/>
			
				<polygon fill-rule="evenodd" clip-rule="evenodd" fill="none" stroke="#FFFFFF" stroke-width="0" stroke-miterlimit="3.8637" points="
				35.081,5 44.259,39.665 35.081,74.33 31.408,74.33 40.584,39.665 31.408,5 			"/>
		</g>
	</g>
	<g>
		<g>
			<path fill="#FFFFFF" d="M48.266,105.773h13.551c-0.56-2.623-0.389-4.549-0.27-5.805h-14.84L48.266,105.773z"/>
			<path fill="none" stroke="#FFFFFF" stroke-width="0" stroke-miterlimit="3.8637" d="M48.266,105.773h13.551
				c-0.56-2.623-0.389-4.549-0.27-5.805h-14.84L48.266,105.773z"/>
		</g>
		<g>
			<path fill-rule="evenodd" clip-rule="evenodd" fill="#FFFFFF" d="M79.514,91.758c-3.027,2.895-4.912,6.973-4.912,11.492
				c0,8.781,7.118,15.898,15.898,15.898c8.781,0,15.946-7.117,15.946-15.898c0,0,12.554-1.636,12.554-5.646
				c0-7.78-0.541-12.459-2.716-16.957c-0.479-0.99-3.039-1.232-3.039-1.232l-4.706-14.158c0,0-0.566-2.407-1.284-3.626
				c-1.074-1.826-3.73-3.094-3.73-3.094l-6.445-3.277L80.828,18.772c0,0-1.763-3.87-4.706-5.353
				c-4.354-2.193-7.316-1.948-7.316-1.948l-1.95-5.891c0,0,8.089,0.311,12.638,2.063c3.855,1.484,6.292,6.871,6.292,6.871
				l15.882,36.189l6.922,3.478c0,0,2.656,1.269,3.731,3.094c0.717,1.219,1.284,3.626,1.284,3.626l4.705,14.158
				c0,0,2.084,0.042,2.563,1.033c2.176,4.496,4.128,17.899,4.128,25.679c0,4.012-13.479,7.256-13.479,7.256
				C108.991,118.234,100.513,125,90.5,125c-12.013,0-21.75-9.738-21.75-21.75c0-5.754,2.234-10.986,5.883-14.876L79.514,91.758z"/>
			
				<path fill-rule="evenodd" clip-rule="evenodd" fill="none" stroke="#FFFFFF" stroke-width="1.5" stroke-linecap="round" stroke-linejoin="round" stroke-miterlimit="3.8637" d="
				M79.514,91.758c-3.027,2.895-4.912,6.973-4.912,11.492c0,8.781,7.118,15.898,15.898,15.898c8.781,0,15.946-7.117,15.946-15.898
				c0,0,12.554-1.636,12.554-5.646c0-7.78-0.541-12.459-2.716-16.957c-0.479-0.99-3.039-1.232-3.039-1.232l-4.706-14.158
				c0,0-0.566-2.407-1.284-3.626c-1.074-1.826-3.73-3.094-3.73-3.094l-6.445-3.277L80.828,18.772c0,0-1.763-3.87-4.706-5.353
				c-4.354-2.193-7.316-1.948-7.316-1.948l-1.95-5.891c0,0,8.089,0.311,12.638,2.063c3.855,1.484,6.292,6.871,6.292,6.871
				l15.882,36.189l6.922,3.478c0,0,2.656,1.269,3.731,3.094c0.717,1.219,1.284,3.626,1.284,3.626l4.705,14.158
				c0,0,2.084,0.042,2.563,1.033c2.176,4.496,4.128,17.899,4.128,25.679c0,4.012-13.479,7.256-13.479,7.256
				C108.991,118.234,100.513,125,90.5,125c-12.013,0-21.75-9.738-21.75-21.75c0-5.754,2.234-10.986,5.883-14.876L79.514,91.758z"/>
		</g>
	</g>
</g>
</svg>
