<?xml version="1.0" encoding="utf-8"?>
<!-- Generator: Adobe Illustrator 16.0.0, SVG Export Plug-In . SVG Version: 6.00 Build 0)  -->
<!DOCTYPE svg PUBLIC "-//W3C//DTD SVG 1.1//EN" "http://www.w3.org/Graphics/SVG/1.1/DTD/svg11.dtd">
<svg version="1.1" id="Capa_1" xmlns="http://www.w3.org/2000/svg" xmlns:xlink="http://www.w3.org/1999/xlink" x="0px" y="0px"
	 width="130px" height="130px" viewBox="0 0 130 130" enable-background="new 0 0 130 130" xml:space="preserve">
<g>
	<g>
		<g>
			<rect x="39.889" y="81.959" fill-rule="evenodd" clip-rule="evenodd" fill="#1A2E3C" width="7.498" height="7.355"/>
			<rect x="61.219" y="81.959" fill-rule="evenodd" clip-rule="evenodd" fill="#1A2E3C" width="7.498" height="7.355"/>
			<rect x="82.549" y="81.959" fill-rule="evenodd" clip-rule="evenodd" fill="#1A2E3C" width="7.498" height="7.355"/>
			<rect x="38.809" y="89.153" fill-rule="evenodd" clip-rule="evenodd" fill="#1A2E3C" width="52.383" height="2.569"/>
			<rect x="38.809" y="80.19" fill-rule="evenodd" clip-rule="evenodd" fill="#1A2E3C" width="52.383" height="2.568"/>
		</g>
		<g>
			<rect x="43.073" y="56.998" fill-rule="evenodd" clip-rule="evenodd" fill="#1A2E3C" width="19.604" height="19.602"/>
			<rect x="67.322" y="56.998" fill-rule="evenodd" clip-rule="evenodd" fill="#1A2E3C" width="19.604" height="19.602"/>
			<rect x="43.073" y="32.75" fill-rule="evenodd" clip-rule="evenodd" fill="#1A2E3C" width="19.604" height="19.603"/>
			<rect x="67.322" y="32.75" fill-rule="evenodd" clip-rule="evenodd" fill="#1A2E3C" width="19.604" height="19.603"/>
		</g>
	</g>
	<polygon fill-rule="evenodd" clip-rule="evenodd" fill="#1A2E3C" points="77.137,113.82 90.945,113.82 64.727,125 38.197,113.82 
		52.151,113.82 51.416,100.689 77.586,100.689 	"/>
	<path fill="#6EAD3B" d="M18.493,80.23V18.809c0-1.321,0.884-2.438,2.091-2.792l32.789-9.548C57.088,5.512,60.986,5,65,5
		s7.911,0.512,11.625,1.468l32.789,9.548c1.207,0.354,2.092,1.472,2.092,2.792V80.23h-5.811l-0.004-58.165
		c0-0.663-0.446-1.226-1.053-1.4l-28.014-8.169c-3.682-1.096-7.588-1.685-11.625-1.685c-4.039,0-7.944,0.589-11.626,1.685
		L25.36,20.666c-0.607,0.175-1.053,0.737-1.053,1.4L24.31,80.23H18.493z"/>
	<g>
		<polygon fill-rule="evenodd" clip-rule="evenodd" fill="#1A2E3C" points="109.85,105.24 114.717,102.396 118.225,113.862 
			95.094,113.862 100.566,110.665 90.204,105.766 99.55,100.663 		"/>
	</g>
	<g>
		<polygon fill-rule="evenodd" clip-rule="evenodd" fill="#1A2E3C" points="109.965,87.842 108.937,84.686 125,90.845 
			113.139,97.594 111.951,93.945 99.701,93.943 98.233,87.844 		"/>
	</g>
	<g>
		<polygon fill-rule="evenodd" clip-rule="evenodd" fill="#1A2E3C" points="18.033,93.981 16.853,97.594 5,90.845 21.071,84.686 
			20.028,87.876 31.762,87.877 30.287,93.98 		"/>
	</g>
	<g>
		<polygon fill-rule="evenodd" clip-rule="evenodd" fill="#1A2E3C" points="29.547,110.661 34.961,113.824 11.835,113.824 
			15.35,102.363 20.266,105.237 30.567,100.66 39.911,105.762 		"/>
	</g>
</g>
</svg>
