<?xml version="1.0" encoding="utf-8"?>
<!-- Generator: Adobe Illustrator 16.0.0, SVG Export Plug-In . SVG Version: 6.00 Build 0)  -->
<!DOCTYPE svg PUBLIC "-//W3C//DTD SVG 1.1//EN" "http://www.w3.org/Graphics/SVG/1.1/DTD/svg11.dtd">
<svg version="1.1" id="Capa_1" xmlns="http://www.w3.org/2000/svg" xmlns:xlink="http://www.w3.org/1999/xlink" x="0px" y="0px"
	 width="130px" height="130px" viewBox="0 0 130 130" enable-background="new 0 0 130 130" xml:space="preserve">
<g>
	<g>
		<g>
			<polygon fill-rule="evenodd" clip-rule="evenodd" fill="#1A2E3C" points="52.046,5 70.754,55.394 52.046,105.787 36.638,105.787 
				52.046,55.394 36.638,5 			"/>
			
				<polygon fill-rule="evenodd" clip-rule="evenodd" fill="none" stroke="#1A2E3C" stroke-width="0" stroke-miterlimit="3.8637" points="
				52.046,5 70.754,55.394 52.046,105.787 36.638,105.787 52.046,55.394 36.638,5 			"/>
		</g>
		<g>
			<polygon fill-rule="evenodd" clip-rule="evenodd" fill="#1A2E3C" points="29.146,5 44.559,55.394 29.146,105.787 19.019,105.787 
				34.427,55.394 19.019,5 			"/>
			
				<polygon fill-rule="evenodd" clip-rule="evenodd" fill="none" stroke="#1A2E3C" stroke-width="0" stroke-miterlimit="3.8637" points="
				29.146,5 44.559,55.394 29.146,105.787 19.019,105.787 34.427,55.394 19.019,5 			"/>
		</g>
		<g>
			<polygon fill-rule="evenodd" clip-rule="evenodd" fill="#1A2E3C" points="11.167,5 26.579,55.394 11.167,105.787 5,105.787 
				20.408,55.394 5,5 			"/>
			
				<polygon fill-rule="evenodd" clip-rule="evenodd" fill="none" stroke="#1A2E3C" stroke-width="0" stroke-miterlimit="3.8637" points="
				11.167,5 26.579,55.394 11.167,105.787 5,105.787 20.408,55.394 5,5 			"/>
		</g>
	</g>
	<g>
		<path fill="#6EAD3B" d="M57.112,105.773h4.705c-0.56-2.623-0.389-4.549-0.27-5.805H59L57.112,105.773z"/>
		<path fill="none" stroke="#6EAD3B" stroke-width="0" stroke-miterlimit="3.8637" d="M57.112,105.773h4.705
			c-0.56-2.623-0.389-4.549-0.27-5.805H59L57.112,105.773z"/>
	</g>
	<g>
		<path fill-rule="evenodd" clip-rule="evenodd" fill="#6EAD3B" d="M79.514,91.758c-3.027,2.895-4.912,6.973-4.912,11.492
			c0,8.78,7.117,15.898,15.898,15.898c8.78,0,15.945-7.118,15.945-15.898c0,0,12.555-1.636,12.555-5.646
			c0-7.78-0.541-12.46-2.716-16.957c-0.479-0.99-3.04-1.232-3.04-1.232l-4.705-14.158c0,0-0.566-2.407-1.284-3.626
			c-1.075-1.826-3.731-3.094-3.731-3.094l-6.445-3.277l-16.25-36.486c0,0-1.763-3.87-4.707-5.353
			c-4.354-2.193-13.324-1.948-13.324-1.948l-1.951-5.891c0,0,12.833-0.581,18.646,2.063c3.761,1.71,6.293,6.871,6.293,6.871
			l15.882,36.189l6.922,3.478c0,0,2.656,1.268,3.731,3.094c0.717,1.219,1.283,3.626,1.283,3.626l4.706,14.158
			c0,0,2.083,0.042,2.563,1.032c2.175,4.497,4.128,17.9,4.128,25.68c0,4.012-13.479,7.256-13.479,7.256
			C108.99,118.234,100.512,125,90.5,125c-12.013,0-21.75-9.738-21.75-21.75c0-5.754,2.234-10.986,5.883-14.876L79.514,91.758z"/>
		
			<path fill-rule="evenodd" clip-rule="evenodd" fill="none" stroke="#6EAD3B" stroke-width="1.5" stroke-linecap="round" stroke-linejoin="round" stroke-miterlimit="3.8637" d="
			M79.514,91.758c-3.027,2.895-4.912,6.973-4.912,11.492c0,8.78,7.117,15.898,15.898,15.898c8.78,0,15.945-7.118,15.945-15.898
			c0,0,12.555-1.636,12.555-5.646c0-7.78-0.541-12.46-2.716-16.957c-0.479-0.99-3.04-1.232-3.04-1.232l-4.705-14.158
			c0,0-0.566-2.407-1.284-3.626c-1.075-1.826-3.731-3.094-3.731-3.094l-6.445-3.277l-16.25-36.486c0,0-1.763-3.87-4.707-5.353
			c-4.354-2.193-13.324-1.948-13.324-1.948l-1.951-5.891c0,0,12.833-0.581,18.646,2.063c3.761,1.71,6.293,6.871,6.293,6.871
			l15.882,36.189l6.922,3.478c0,0,2.656,1.268,3.731,3.094c0.717,1.219,1.283,3.626,1.283,3.626l4.706,14.158
			c0,0,2.083,0.042,2.563,1.032c2.175,4.497,4.128,17.9,4.128,25.68c0,4.012-13.479,7.256-13.479,7.256
			C108.99,118.234,100.512,125,90.5,125c-12.013,0-21.75-9.738-21.75-21.75c0-5.754,2.234-10.986,5.883-14.876L79.514,91.758z"/>
	</g>
</g>
</svg>
