<?xml version="1.0" encoding="utf-8"?>
<!-- Generator: Adobe Illustrator 16.0.0, SVG Export Plug-In . SVG Version: 6.00 Build 0)  -->
<!DOCTYPE svg PUBLIC "-//W3C//DTD SVG 1.1//EN" "http://www.w3.org/Graphics/SVG/1.1/DTD/svg11.dtd">
<svg version="1.1" id="Capa_1" xmlns="http://www.w3.org/2000/svg" xmlns:xlink="http://www.w3.org/1999/xlink" x="0px" y="0px"
	 width="130px" height="130px" viewBox="0 0 130 130" enable-background="new 0 0 130 130" xml:space="preserve">
<g>
	<path fill-rule="evenodd" clip-rule="evenodd" fill="#6EAD3B" d="M65.001,15.001c-9.089,0-17.423,3.233-23.915,8.613
		c-6.492,5.379-11.141,12.906-12.859,21.489l1.9-1.235l1.9-1.235l1.173,1.809l1.172,1.809c1.448-7.132,5.325-13.382,10.73-17.849
		c5.405-4.467,12.338-7.151,19.898-7.151s14.492,2.684,19.896,7.151c5.404,4.467,9.28,10.717,10.729,17.849l-1.55,0.163
		l-1.549,0.163l3.423,2.783l3.423,2.782l2.79-3.435l2.79-3.436l-1.543,0.162l-1.542,0.163c-1.62-8.707-6.248-16.355-12.767-21.828
		C82.584,18.297,74.177,15.001,65.001,15.001z"/>
	<path fill-rule="evenodd" clip-rule="evenodd" fill="#6EAD3B" d="M32.519,71.251L48.76,99.376L65.001,127.5l16.241-28.124
		l16.243-28.125c1.003-1.735,1.873-3.559,2.593-5.457c0.719-1.897,1.29-3.868,1.695-5.897l-1.899,1.235l-1.899,1.235l-1.173-1.809
		L95.63,58.75c-1.448,7.132-5.325,13.383-10.73,17.849c-5.406,4.467-12.339,7.151-19.898,7.151s-14.492-2.685-19.896-7.151
		C39.7,72.133,35.824,65.882,34.376,58.75l1.549-0.163l1.549-0.164l-3.423-2.782l-3.423-2.783l-2.79,3.436l-2.79,3.436l1.542-0.163
		l1.542-0.163c0.394,2.121,0.969,4.18,1.706,6.16C30.577,67.544,31.476,69.446,32.519,71.251z"/>
	<path fill-rule="evenodd" clip-rule="evenodd" fill="#6EAD3B" d="M97.906,81.334l-4.292,7.433l-4.292,7.433
		c7.66-4.271,14.079-10.501,18.585-18.009c4.505-7.508,7.095-16.297,7.095-25.69V34.924V17.348c0-0.71-0.237-1.366-0.638-1.892
		c-0.399-0.525-0.962-0.921-1.61-1.111L95.127,9.212L77.5,4.078c-1.997-0.514-4.043-0.908-6.129-1.174
		C69.284,2.638,67.157,2.5,65,2.5c-2.158,0-4.284,0.138-6.37,0.404c-2.086,0.266-4.133,0.661-6.13,1.174L34.873,9.212l-17.627,5.133
		c-0.649,0.19-1.21,0.586-1.61,1.111s-0.638,1.181-0.638,1.892v17.576V52.5c0,9.392,2.588,18.177,7.09,25.684
		c4.502,7.506,10.918,13.731,18.576,18.004l-4.299-7.443L32.065,81.3c-3.369-3.848-6.073-8.289-7.935-13.148
		c-1.861-4.858-2.88-10.134-2.88-15.651V36.675V20.85c0-0.356,0.12-0.686,0.321-0.95c0.202-0.264,0.484-0.462,0.811-0.556
		l15.059-4.392L52.5,10.56c1.979-0.589,4.019-1.042,6.106-1.347S62.829,8.749,65,8.749s4.307,0.158,6.394,0.464
		s4.128,0.758,6.106,1.347l15.06,4.392l15.06,4.392c0.326,0.094,0.608,0.292,0.811,0.556c0.201,0.264,0.321,0.593,0.321,0.95
		l0.001,15.825l0.001,15.826c0,5.521-1.024,10.805-2.892,15.67C103.993,73.036,101.282,77.484,97.906,81.334z"/>
</g>
</svg>
