<?xml version="1.0" encoding="utf-8"?>
<!-- Generator: Adobe Illustrator 16.0.0, SVG Export Plug-In . SVG Version: 6.00 Build 0)  -->
<!DOCTYPE svg PUBLIC "-//W3C//DTD SVG 1.1//EN" "http://www.w3.org/Graphics/SVG/1.1/DTD/svg11.dtd">
<svg version="1.1" id="Capa_1" xmlns="http://www.w3.org/2000/svg" xmlns:xlink="http://www.w3.org/1999/xlink" x="0px" y="0px"
	 width="130px" height="130px" viewBox="0 0 130 130" enable-background="new 0 0 130 130" xml:space="preserve">
<g>
	<path fill="#FFFFFF" d="M21.501,65.341l0.002,34.234c0,0.771,0.488,1.426,1.154,1.628l30.71,9.501
		c4.037,1.273,8.318,1.959,12.746,1.959c4.428,0,8.709-0.686,12.746-1.959l30.709-9.501c0.666-0.202,1.154-0.856,1.154-1.628V65.341
		c0-26.135-19.971-47.321-44.609-47.321C41.474,18.02,21.501,39.206,21.501,65.341z M117.097,65.341v38.021
		c0,1.537-0.97,2.837-2.293,3.248l-35.945,11.104c-4.073,1.112-8.347,1.706-12.746,1.706c-4.4,0-8.673-0.594-12.746-1.706
		L17.421,106.61c-1.323-0.411-2.292-1.711-2.292-3.248V65.341c0-29.868,22.826-54.081,50.984-54.081S117.097,35.473,117.097,65.341z
		"/>
	<g>
		<g>
			<path fill="#525859" d="M41.487,112.095c3.859,9.804,10.803,13.189,18.168,12.771c6.563-0.555,13.184-3.002,18.657-7.027
				c-3.748,0.922-7.688,1.41-11.701,1.41C57.718,119.249,48.785,116.31,41.487,112.095z"/>
			<path fill-rule="evenodd" clip-rule="evenodd" fill="#FFFFFF" d="M16.797,73.942L5.002,69.882l30.727-16.611l23.628,35.145
				l-19.775-6.614c-3.723,16.476,0.596,44.169,20.081,43.066c-10.058,0.852-20.592-2.418-29.118-10.007
				C18.743,104.354,13.895,88.397,16.797,73.942z"/>
		</g>
		<g>
			<path fill="#525859" d="M39.499,19.378c-9.907-1.138-16.093,3.689-19.312,10.708c-2.795,6.526-3.987,13.488-3.205,20.702
				C20.46,37.788,29.01,26.476,39.499,19.378z"/>
			<path fill-rule="evenodd" clip-rule="evenodd" fill="#FFFFFF" d="M82.946,15.006l9.066-8.976L90.81,42.595l-40.427,4.887
				l15.04-15.144c-11.778-11.442-36.701-20.861-45.238-2.245c4.174-9.746,11.977-17.936,22.367-22.167
				C56.933,2.068,72.438,5.305,82.946,15.006z"/>
		</g>
		<g>
			<path fill="#525859" d="M101.845,26.783c8.729,9.295,14.238,21.904,14.857,35.9c5.699-8.619,4.679-16.646,0.463-23.021
				C113.344,34.196,107.759,29.587,101.845,26.783z"/>
			<path fill-rule="evenodd" clip-rule="evenodd" fill="#FFFFFF" d="M99.171,105.208l3.004,12.765L72.614,99.13l15.571-39.883
				l5.192,21.297c15.143-5.381,34.99-23.941,23.783-40.889c6.011,8.598,8.979,19.809,7.431,31.501
				C122.448,87.343,112.263,100.16,99.171,105.208z"/>
		</g>
	</g>
</g>
</svg>
