<?xml version="1.0" encoding="utf-8"?>
<!-- Generator: Adobe Illustrator 16.0.0, SVG Export Plug-In . SVG Version: 6.00 Build 0)  -->
<!DOCTYPE svg PUBLIC "-//W3C//DTD SVG 1.1//EN" "http://www.w3.org/Graphics/SVG/1.1/DTD/svg11.dtd">
<svg version="1.1" id="Capa_1" xmlns="http://www.w3.org/2000/svg" xmlns:xlink="http://www.w3.org/1999/xlink" x="0px" y="0px"
	 width="130px" height="130px" viewBox="0 0 130 130" enable-background="new 0 0 130 130" xml:space="preserve">
<g>
	<g>
		<polygon fill-rule="evenodd" clip-rule="evenodd" fill="#1A2E3C" points="56.963,60.928 58.623,60.928 60.283,60.928 
			59.015,52.248 57.749,43.568 56.56,43.568 55.371,43.568 53.374,49.141 51.378,54.715 49.292,49.141 47.207,43.568 46.04,43.568 
			44.874,43.568 43.45,52.248 42.025,60.928 43.685,60.928 45.345,60.928 46.118,55.68 46.892,50.431 48.743,55.792 50.593,61.152 
			51.165,61.152 51.737,61.152 53.677,55.792 55.618,50.431 56.29,55.68 		"/>
		<path fill-rule="evenodd" clip-rule="evenodd" fill="#1A2E3C" d="M77.994,61.309l-1.155-1.368l-1.155-1.368
			c0.321-0.419,0.606-0.865,0.852-1.338c0.247-0.473,0.457-0.973,0.629-1.5c0.172-0.527,0.3-1.064,0.387-1.612
			c0.086-0.548,0.129-1.105,0.129-1.674c0-0.59-0.051-1.167-0.151-1.729s-0.253-1.111-0.455-1.646
			c-0.201-0.535-0.446-1.039-0.736-1.514c-0.29-0.475-0.624-0.92-1.001-1.334c-0.378-0.415-0.79-0.786-1.236-1.11
			c-0.446-0.325-0.928-0.606-1.444-0.841c-0.515-0.235-1.052-0.412-1.609-0.53c-0.557-0.118-1.134-0.176-1.732-0.176
			s-1.176,0.059-1.733,0.176c-0.557,0.118-1.093,0.294-1.608,0.53s-0.998,0.516-1.443,0.841c-0.447,0.325-0.86,0.695-1.237,1.11
			c-0.378,0.415-0.711,0.86-1.001,1.334c-0.289,0.475-0.536,0.979-0.738,1.514c-0.202,0.534-0.353,1.083-0.454,1.646
			c-0.101,0.563-0.151,1.14-0.151,1.729c0,0.606,0.05,1.194,0.151,1.767c0.101,0.572,0.252,1.127,0.454,1.666
			c0.202,0.539,0.449,1.046,0.738,1.522c0.29,0.477,0.624,0.923,1.001,1.338c0.377,0.415,0.79,0.784,1.237,1.107
			c0.446,0.323,0.928,0.601,1.443,0.833c0.516,0.231,1.052,0.406,1.608,0.521c0.558,0.116,1.135,0.174,1.733,0.174
			c0.389,0,0.771-0.024,1.146-0.073c0.376-0.048,0.745-0.121,1.107-0.219c0.363-0.097,0.706-0.217,1.029-0.359
			c0.324-0.142,0.627-0.307,0.911-0.493l0.583,0.706l0.583,0.707l1.661-0.167L77.994,61.309z M71.713,54.154l-1.703,0.134
			l-1.705,0.135l1.391,1.604l1.391,1.604l-0.393,0.224l-0.46,0.18l-0.478,0.118l-0.442,0.039c-0.389,0-0.758-0.038-1.106-0.115
			c-0.351-0.077-0.68-0.191-0.991-0.345c-0.31-0.153-0.595-0.333-0.857-0.541c-0.262-0.208-0.499-0.442-0.712-0.704
			c-0.213-0.262-0.399-0.54-0.561-0.835c-0.16-0.295-0.295-0.607-0.404-0.937c-0.108-0.329-0.189-0.665-0.243-1.009
			c-0.055-0.344-0.081-0.695-0.081-1.054c0-0.374,0.026-0.743,0.081-1.105c0.054-0.362,0.135-0.719,0.243-1.07
			c0.108-0.352,0.244-0.686,0.404-1.004c0.161-0.318,0.348-0.619,0.561-0.903c0.213-0.284,0.451-0.54,0.712-0.766
			c0.263-0.227,0.548-0.423,0.857-0.592c0.312-0.168,0.641-0.294,0.991-0.378c0.349-0.084,0.718-0.125,1.106-0.125
			c0.359,0,0.704,0.04,1.038,0.12c0.332,0.08,0.651,0.201,0.959,0.362c0.306,0.161,0.591,0.349,0.854,0.566
			c0.264,0.217,0.506,0.462,0.727,0.734c0.22,0.273,0.415,0.562,0.586,0.867c0.17,0.305,0.314,0.625,0.434,0.962
			c0.12,0.336,0.21,0.674,0.27,1.015c0.06,0.34,0.09,0.682,0.09,1.026c0,0.314-0.021,0.629-0.064,0.945s-0.107,0.633-0.193,0.95
			c-0.087,0.318-0.195,0.61-0.328,0.877c-0.133,0.268-0.289,0.51-0.469,0.727l-0.752-0.852L71.713,54.154z"/>
		<polygon fill-rule="evenodd" clip-rule="evenodd" fill="#1A2E3C" points="84.794,46.887 86.498,46.887 88.203,46.887 
			88.203,45.452 88.203,44.016 83.146,44.016 78.087,44.016 78.087,45.452 78.087,46.887 79.792,46.887 81.496,46.887 
			81.496,53.908 81.496,60.928 83.146,60.928 84.794,60.928 84.794,53.908 		"/>
	</g>
	<g>
		<path fill-rule="evenodd" clip-rule="evenodd" fill="#6EAD3B" d="M65.001,15.001c-9.089,0-17.424,3.233-23.915,8.613
			c-6.492,5.38-11.141,12.905-12.859,21.489l1.9-1.235l1.899-1.235l1.173,1.809l1.172,1.809c1.448-7.133,5.326-13.382,10.73-17.849
			c5.405-4.467,12.338-7.151,19.898-7.151s14.491,2.684,19.896,7.151c5.405,4.467,9.28,10.716,10.729,17.849l-1.551,0.163
			l-1.549,0.163l3.423,2.783l3.423,2.782l2.79-3.435l2.79-3.436l-1.542,0.163l-1.543,0.163c-1.62-8.707-6.248-16.355-12.767-21.827
			C82.584,18.297,74.177,15.001,65.001,15.001z"/>
		<path fill-rule="evenodd" clip-rule="evenodd" fill="#6EAD3B" d="M32.519,71.251L48.76,99.376L65.001,127.5l16.242-28.124
			l16.241-28.125c1.004-1.736,1.874-3.559,2.594-5.457c0.72-1.897,1.289-3.868,1.696-5.897l-1.899,1.235l-1.9,1.235l-1.173-1.809
			l-1.173-1.81c-1.447,7.133-5.324,13.383-10.729,17.849c-5.406,4.468-12.339,7.151-19.898,7.151s-14.492-2.684-19.896-7.151
			c-5.404-4.466-9.281-10.716-10.729-17.849l1.549-0.163l1.549-0.164l-3.423-2.782l-3.423-2.783l-2.79,3.436l-2.79,3.436
			l1.542-0.163l1.542-0.163c0.395,2.121,0.969,4.18,1.706,6.16C30.577,67.544,31.476,69.446,32.519,71.251z"/>
		<path fill-rule="evenodd" clip-rule="evenodd" fill="#6EAD3B" d="M97.906,81.334l-4.292,7.433l-4.292,7.433
			c7.66-4.271,14.079-10.5,18.585-18.009c4.505-7.509,7.095-16.297,7.095-25.69V34.924V17.348c0-0.71-0.237-1.366-0.638-1.891
			c-0.399-0.526-0.962-0.921-1.61-1.111L95.127,9.211L77.501,4.078c-1.997-0.514-4.043-0.908-6.13-1.174
			C69.284,2.638,67.158,2.5,65,2.5c-2.157,0-4.284,0.138-6.37,0.404c-2.086,0.266-4.133,0.661-6.13,1.174L34.873,9.211
			l-17.627,5.134c-0.649,0.19-1.21,0.585-1.61,1.111c-0.4,0.525-0.638,1.181-0.638,1.891v17.576V52.5
			c0,9.392,2.588,18.176,7.089,25.684c4.503,7.505,10.919,13.731,18.576,18.005l-4.299-7.445l-4.299-7.443
			c-3.369-3.849-6.073-8.29-7.935-13.149c-1.861-4.858-2.88-10.134-2.88-15.651V36.675V20.85c0-0.356,0.12-0.686,0.321-0.95
			c0.202-0.264,0.484-0.462,0.81-0.556l15.06-4.392l15.06-4.392c1.979-0.589,4.019-1.042,6.106-1.348
			C60.694,8.907,62.829,8.749,65,8.749s4.308,0.158,6.394,0.464c2.088,0.306,4.128,0.758,6.107,1.348l15.059,4.392l15.059,4.392
			c0.327,0.094,0.609,0.292,0.812,0.556c0.202,0.264,0.321,0.593,0.321,0.95l0.001,15.825l0.001,15.826
			c0,5.522-1.024,10.805-2.893,15.67C103.993,73.037,101.282,77.484,97.906,81.334z"/>
	</g>
</g>
</svg>
