<?xml version="1.0" encoding="utf-8"?>
<!-- Generator: Adobe Illustrator 16.0.0, SVG Export Plug-In . SVG Version: 6.00 Build 0)  -->
<!DOCTYPE svg PUBLIC "-//W3C//DTD SVG 1.1//EN" "http://www.w3.org/Graphics/SVG/1.1/DTD/svg11.dtd">
<svg version="1.1" id="Capa_1" xmlns="http://www.w3.org/2000/svg" xmlns:xlink="http://www.w3.org/1999/xlink" x="0px" y="0px"
	 width="130px" height="130px" viewBox="0 0 130 130" enable-background="new 0 0 130 130" xml:space="preserve">
<g>
	<g>
		<polygon fill-rule="evenodd" clip-rule="evenodd" fill="#FFFFFF" points="56.963,60.928 58.623,60.928 60.283,60.928 
			59.015,52.247 57.748,43.567 56.559,43.567 55.371,43.567 53.375,49.141 51.378,54.714 49.292,49.141 47.207,43.567 46.04,43.567 
			44.874,43.567 43.449,52.247 42.025,60.928 43.685,60.928 45.345,60.928 46.118,55.679 46.892,50.431 48.743,55.791 
			50.593,61.152 51.165,61.152 51.737,61.152 53.677,55.791 55.617,50.431 56.291,55.679 		"/>
		<path fill-rule="evenodd" clip-rule="evenodd" fill="#FFFFFF" d="M77.994,61.309l-1.156-1.369l-1.154-1.368
			c0.321-0.418,0.605-0.864,0.852-1.337c0.247-0.473,0.457-0.973,0.628-1.5c0.173-0.527,0.302-1.064,0.388-1.612
			s0.129-1.105,0.129-1.674c0-0.591-0.051-1.167-0.151-1.73s-0.253-1.111-0.454-1.646c-0.202-0.535-0.448-1.04-0.737-1.514
			c-0.29-0.475-0.624-0.919-1.001-1.335c-0.378-0.415-0.79-0.785-1.236-1.11c-0.447-0.326-0.929-0.606-1.444-0.841
			c-0.516-0.236-1.052-0.413-1.609-0.53c-0.557-0.118-1.135-0.177-1.732-0.177c-0.599,0-1.176,0.059-1.732,0.177
			s-1.094,0.294-1.609,0.53c-0.516,0.235-0.998,0.515-1.444,0.841c-0.447,0.325-0.859,0.695-1.236,1.11
			c-0.378,0.416-0.711,0.86-1.001,1.335c-0.29,0.475-0.536,0.979-0.737,1.514c-0.202,0.534-0.354,1.083-0.454,1.646
			c-0.101,0.563-0.151,1.139-0.151,1.73c0,0.605,0.05,1.194,0.151,1.766c0.101,0.572,0.252,1.127,0.454,1.666
			c0.202,0.538,0.447,1.046,0.737,1.522c0.29,0.477,0.623,0.922,1.001,1.337c0.377,0.415,0.79,0.784,1.236,1.107
			c0.447,0.323,0.928,0.601,1.444,0.833c0.516,0.231,1.053,0.405,1.609,0.521c0.557,0.116,1.134,0.174,1.732,0.174
			c0.389,0,0.771-0.024,1.146-0.073c0.376-0.048,0.745-0.122,1.107-0.219c0.363-0.097,0.706-0.217,1.029-0.359
			s0.627-0.307,0.911-0.494l0.583,0.707l0.583,0.707l1.659-0.168L77.994,61.309z M71.713,54.154l-1.704,0.134l-1.705,0.135
			l1.391,1.604l1.391,1.604l-0.393,0.224l-0.459,0.18l-0.478,0.117l-0.442,0.04c-0.39,0-0.758-0.038-1.107-0.115
			c-0.35-0.076-0.68-0.191-0.99-0.344c-0.31-0.154-0.597-0.334-0.857-0.542c-0.262-0.208-0.499-0.442-0.712-0.704
			c-0.213-0.262-0.4-0.54-0.561-0.835s-0.295-0.607-0.404-0.937c-0.108-0.329-0.189-0.666-0.244-1.009
			c-0.054-0.344-0.081-0.695-0.081-1.054c0-0.374,0.027-0.742,0.081-1.104c0.055-0.363,0.136-0.72,0.244-1.071
			c0.108-0.352,0.243-0.686,0.404-1.004s0.348-0.619,0.561-0.903c0.213-0.284,0.451-0.54,0.712-0.766
			c0.261-0.226,0.548-0.423,0.857-0.591c0.311-0.168,0.641-0.294,0.99-0.378c0.35-0.084,0.718-0.126,1.107-0.126
			c0.358,0,0.705,0.04,1.037,0.121c0.333,0.08,0.652,0.2,0.959,0.361s0.592,0.349,0.855,0.566c0.264,0.217,0.505,0.461,0.726,0.735
			c0.221,0.272,0.416,0.562,0.586,0.866c0.171,0.305,0.315,0.625,0.435,0.962c0.12,0.336,0.21,0.675,0.27,1.015
			c0.06,0.34,0.09,0.682,0.09,1.026c0,0.314-0.022,0.629-0.064,0.945c-0.043,0.316-0.107,0.632-0.193,0.95
			c-0.087,0.318-0.195,0.61-0.328,0.878c-0.133,0.267-0.289,0.509-0.468,0.726l-0.752-0.852L71.713,54.154z"/>
		<polygon fill-rule="evenodd" clip-rule="evenodd" fill="#FFFFFF" points="84.793,46.887 86.498,46.887 88.202,46.887 
			88.202,45.451 88.202,44.016 83.146,44.016 78.087,44.016 78.087,45.451 78.087,46.887 79.792,46.887 81.496,46.887 
			81.496,53.907 81.496,60.928 83.146,60.928 84.793,60.928 84.793,53.907 		"/>
	</g>
	<g>
		<path fill-rule="evenodd" clip-rule="evenodd" fill="#FFFFFF" d="M65.001,15c-9.089,0-17.423,3.234-23.915,8.614
			c-6.492,5.379-11.14,12.905-12.858,21.488l1.9-1.235l1.9-1.235l1.172,1.809l1.172,1.809c1.448-7.132,5.325-13.382,10.731-17.85
			c5.405-4.466,12.338-7.15,19.898-7.15c7.56,0,14.492,2.684,19.896,7.15c5.405,4.467,9.281,10.718,10.729,17.85l-1.55,0.163
			l-1.549,0.163l3.423,2.783l3.422,2.782l2.791-3.436l2.79-3.435l-1.543,0.163l-1.542,0.162c-1.62-8.706-6.249-16.355-12.767-21.827
			S74.177,15,65.001,15z"/>
		<path fill-rule="evenodd" clip-rule="evenodd" fill="#FFFFFF" d="M32.519,71.25L48.76,99.375L65.001,127.5l16.241-28.125
			L97.484,71.25c1.004-1.734,1.873-3.559,2.594-5.456c0.719-1.897,1.29-3.868,1.695-5.897l-1.899,1.235l-1.899,1.235l-1.173-1.809
			L95.63,58.75c-1.448,7.132-5.326,13.382-10.73,17.849c-5.406,4.467-12.339,7.15-19.898,7.15c-7.56,0-14.492-2.684-19.896-7.15
			s-9.28-10.717-10.728-17.849l1.549-0.164l1.55-0.163l-3.423-2.782l-3.422-2.782l-2.79,3.435l-2.791,3.436l1.542-0.163l1.542-0.162
			c0.395,2.12,0.969,4.179,1.706,6.159C30.577,67.544,31.475,69.445,32.519,71.25z"/>
		<path fill-rule="evenodd" clip-rule="evenodd" fill="#FFFFFF" d="M97.906,81.334l-4.292,7.432l-4.292,7.434
			c7.66-4.272,14.079-10.501,18.585-18.01c4.504-7.508,7.095-16.297,7.095-25.689V34.923V17.347c0-0.71-0.237-1.366-0.638-1.891
			c-0.399-0.525-0.962-0.921-1.61-1.111L95.127,9.211L77.5,4.078c-1.997-0.515-4.043-0.909-6.129-1.174
			C69.284,2.638,67.157,2.5,65,2.5c-2.158,0-4.284,0.138-6.371,0.404c-2.086,0.266-4.133,0.66-6.13,1.174L34.873,9.211
			l-17.626,5.134c-0.649,0.19-1.21,0.585-1.611,1.111c-0.399,0.525-0.637,1.181-0.637,1.891v17.577V52.5
			c0,9.391,2.587,18.178,7.09,25.684c4.501,7.506,10.918,13.731,18.575,18.005l-4.299-7.444L32.065,81.3
			c-3.369-3.849-6.073-8.29-7.935-13.148c-1.861-4.859-2.88-10.135-2.88-15.651V36.674V20.849c0-0.356,0.12-0.686,0.321-0.949
			c0.201-0.264,0.484-0.462,0.811-0.556l15.059-4.392L52.5,10.56c1.98-0.588,4.02-1.042,6.107-1.347S62.829,8.749,65,8.749
			s4.306,0.158,6.394,0.464c2.087,0.306,4.127,0.759,6.106,1.347l15.06,4.392l15.06,4.392c0.326,0.093,0.608,0.292,0.811,0.556
			c0.201,0.264,0.32,0.593,0.32,0.949l0.002,15.826l0.001,15.826c0,5.521-1.024,10.805-2.892,15.671
			C103.993,73.036,101.282,77.484,97.906,81.334z"/>
	</g>
</g>
</svg>
