<?xml version="1.0" encoding="utf-8"?>
<!-- Generator: Adobe Illustrator 16.0.0, SVG Export Plug-In . SVG Version: 6.00 Build 0)  -->
<!DOCTYPE svg PUBLIC "-//W3C//DTD SVG 1.1//EN" "http://www.w3.org/Graphics/SVG/1.1/DTD/svg11.dtd">
<svg version="1.1" id="Capa_1" xmlns="http://www.w3.org/2000/svg" xmlns:xlink="http://www.w3.org/1999/xlink" x="0px" y="0px"
	 width="130px" height="130px" viewBox="0 0 130 130" enable-background="new 0 0 130 130" xml:space="preserve">
<g>
	<g>
		<path fill="#6EAD3B" d="M41.664,48.452V34.209c0-0.576,0.386-1.063,0.911-1.216l14.287-4.16c1.619-0.417,3.317-0.639,5.066-0.639
			s3.447,0.223,5.066,0.639l14.287,4.16c0.526,0.154,0.911,0.641,0.911,1.216v14.242c0,11.188-9.073,20.257-20.265,20.257
			C50.736,68.709,41.664,59.64,41.664,48.452z"/>
		<path fill="none" stroke="#6EAD3B" stroke-width="0.7687" stroke-miterlimit="3.8637" d="M41.664,48.452V34.209
			c0-0.576,0.386-1.063,0.911-1.216l14.287-4.16c1.619-0.417,3.317-0.639,5.066-0.639s3.447,0.223,5.066,0.639l14.287,4.16
			c0.526,0.154,0.911,0.641,0.911,1.216v14.242c0,11.188-9.073,20.257-20.265,20.257C50.736,68.709,41.664,59.64,41.664,48.452z"/>
	</g>
	<g>
		<path fill="#6EAD3B" d="M44.728,70.019c-6.586,5.646-10.81,14.37-10.81,24.16v21.669c0,0.876,0.542,1.616,1.281,1.851
			l20.106,6.328c2.278,0.634,4.669,0.973,7.13,0.973s4.852-0.339,7.129-0.973l20.106-6.328c0.74-0.234,1.282-0.975,1.282-1.851
			V94.179c0-10.079-4.471-19.031-11.393-24.654c-4.676,4.237-10.888,6.817-17.695,6.817C55.324,76.342,49.334,73.963,44.728,70.019z
			"/>
		<path fill="none" stroke="#6EAD3B" stroke-width="0.7687" stroke-miterlimit="3.8637" d="M44.728,70.019
			c-6.586,5.646-10.81,14.37-10.81,24.16v21.669c0,0.876,0.542,1.616,1.281,1.851l20.106,6.328c2.278,0.634,4.669,0.973,7.13,0.973
			s4.852-0.339,7.129-0.973l20.106-6.328c0.74-0.234,1.282-0.975,1.282-1.851V94.179c0-10.079-4.471-19.031-11.393-24.654
			c-4.676,4.237-10.888,6.817-17.695,6.817C55.324,76.342,49.334,73.963,44.728,70.019z"/>
	</g>
	<g>
		<path fill="#6EAD3B" d="M51.765,22.032l-16.517,4.809c-0.684,0.2-1.185,0.833-1.185,1.582v18.515c0,3.254,0.64,6.372,1.72,9.249
			c-1.362,0.289-2.822,0.44-4.271,0.44c-11.191,0-20.265-9.069-20.265-20.257V22.126c0-0.575,0.386-1.062,0.911-1.216l14.288-4.16
			c1.618-0.417,3.317-0.64,5.065-0.64c1.749,0,3.447,0.223,5.066,0.64l14.287,4.16C51.363,21.056,51.726,21.498,51.765,22.032z"/>
		<path fill="none" stroke="#6EAD3B" stroke-width="0.7687" stroke-miterlimit="3.8637" d="M51.765,22.032l-16.517,4.809
			c-0.684,0.2-1.185,0.833-1.185,1.582v18.515c0,3.254,0.64,6.372,1.72,9.249c-1.362,0.289-2.822,0.44-4.271,0.44
			c-11.191,0-20.265-9.069-20.265-20.257V22.126c0-0.575,0.386-1.062,0.911-1.216l14.288-4.16c1.618-0.417,3.317-0.64,5.065-0.64
			c1.749,0,3.447,0.223,5.066,0.64l14.287,4.16C51.363,21.056,51.726,21.498,51.765,22.032z"/>
	</g>
	<g>
		<path fill="#6EAD3B" d="M26.801,112.391V91.915c0-11.749,5.09-22.222,12.994-28.996c-2.617,0.869-5.438,1.339-8.346,1.339
			c-6.541,0-12.531-2.378-17.137-6.324C7.727,63.581,3.502,72.305,3.502,82.096v21.668c0,0.876,0.542,1.617,1.282,1.852
			l20.106,6.328C25.518,112.118,26.158,112.262,26.801,112.391z"/>
		<path fill="none" stroke="#6EAD3B" stroke-width="0.7687" stroke-miterlimit="3.8637" d="M26.801,112.391V91.915
			c0-11.749,5.09-22.222,12.994-28.996c-2.617,0.869-5.438,1.339-8.346,1.339c-6.541,0-12.531-2.378-17.137-6.324
			C7.727,63.581,3.502,72.305,3.502,82.096v21.668c0,0.876,0.542,1.617,1.282,1.852l20.106,6.328
			C25.518,112.118,26.158,112.262,26.801,112.391z"/>
	</g>
	<g>
		<path fill="#6EAD3B" d="M89.564,51.953c-0.593,4.449-2.324,8.546-4.855,12.004c8.23,6.754,13.535,17.427,13.535,29.458
			l0.023,8.393c2.369-0.022,4.644-0.362,6.842-0.974l20.106-6.328c0.739-0.235,1.282-0.977,1.282-1.852V70.986
			c0-10.08-4.471-19.032-11.393-24.655c-4.676,4.237-10.889,6.818-17.695,6.818C94.662,53.149,92.056,52.732,89.564,51.953z"/>
		<path fill="none" stroke="#6EAD3B" stroke-width="0.7687" stroke-miterlimit="3.8637" d="M89.564,51.953
			c-0.593,4.449-2.324,8.546-4.855,12.004c8.23,6.754,13.535,17.427,13.535,29.458l0.023,8.393c2.369-0.022,4.644-0.362,6.842-0.974
			l20.106-6.328c0.739-0.235,1.282-0.977,1.282-1.852V70.986c0-10.08-4.471-19.032-11.393-24.655
			c-4.676,4.237-10.889,6.818-17.695,6.818C94.662,53.149,92.056,52.732,89.564,51.953z"/>
	</g>
	<g>
		<path fill="#6EAD3B" d="M77.256,23.534l-0.047-12.517c0-0.575,0.385-1.063,0.91-1.217l14.288-4.159
			c1.618-0.417,3.317-0.64,5.065-0.64c1.75,0,3.447,0.223,5.066,0.64L116.826,9.8c0.526,0.154,0.912,0.642,0.912,1.217v14.242
			c0,11.188-9.073,20.258-20.266,20.258c-2.732,0-5.338-0.541-7.717-1.521l-0.005-15.574c0-0.748-0.501-1.381-1.185-1.582
			L77.256,23.534z"/>
		<path fill="none" stroke="#6EAD3B" stroke-width="0.7687" stroke-miterlimit="3.8637" d="M77.256,23.534l-0.047-12.517
			c0-0.575,0.385-1.063,0.91-1.217l14.288-4.159c1.618-0.417,3.317-0.64,5.065-0.64c1.75,0,3.447,0.223,5.066,0.64L116.826,9.8
			c0.526,0.154,0.912,0.642,0.912,1.217v14.242c0,11.188-9.073,20.258-20.266,20.258c-2.732,0-5.338-0.541-7.717-1.521
			l-0.005-15.574c0-0.748-0.501-1.381-1.185-1.582L77.256,23.534z"/>
	</g>
</g>
</svg>
