<?xml version="1.0" encoding="utf-8"?>
<!-- Generator: Adobe Illustrator 16.0.0, SVG Export Plug-In . SVG Version: 6.00 Build 0)  -->
<!DOCTYPE svg PUBLIC "-//W3C//DTD SVG 1.1//EN" "http://www.w3.org/Graphics/SVG/1.1/DTD/svg11.dtd">
<svg version="1.1" id="Capa_1" xmlns="http://www.w3.org/2000/svg" xmlns:xlink="http://www.w3.org/1999/xlink" x="0px" y="0px"
	 width="130px" height="130px" viewBox="0 0 130 130" enable-background="new 0 0 130 130" xml:space="preserve">
<g>
	<g>
		<path fill-rule="evenodd" clip-rule="evenodd" fill="#FFFFFF" d="M44.832,44.831c-11.14,11.14-11.14,29.2,0,40.339
			c11.14,11.14,29.199,11.14,40.34,0c11.139-11.14,11.139-29.199,0-40.339C74.032,33.691,55.972,33.692,44.832,44.831z
			 M40.955,45.521c0.515-0.622,0.448-0.942,0.053-1.462c-0.405-0.533-3.083-3.383-3.047-3.908c0.018-0.256,1.934-2.171,2.189-2.189
			c0.524-0.037,3.374,2.642,3.907,3.046c0.521,0.396,0.843,0.46,1.465-0.054c0.424-0.344,0.854-0.675,1.293-0.994
			c0.657-0.468,0.677-0.792,0.43-1.398c-0.253-0.62-2.103-4.065-1.931-4.563c0.083-0.242,2.43-1.597,2.681-1.548
			c0.517,0.101,2.576,3.425,2.986,3.954c0.4,0.517,0.694,0.662,1.429,0.327c0.498-0.223,1-0.431,1.506-0.625
			c0.756-0.282,0.859-0.59,0.777-1.239c-0.085-0.664-0.979-4.471-0.685-4.907c0.143-0.212,2.76-0.914,2.99-0.801
			c0.473,0.23,1.602,3.975,1.861,4.592c0.253,0.603,0.499,0.82,1.295,0.686c0.54-0.086,1.078-0.158,1.616-0.214
			c0.804-0.076,0.983-0.348,1.072-0.996c0.09-0.663,0.212-4.572,0.608-4.917c0.193-0.168,2.903-0.168,3.096,0
			c0.397,0.345,0.519,4.254,0.609,4.917c0.089,0.648,0.271,0.921,1.074,0.998c0.543,0.056,1.082,0.127,1.616,0.211
			c0.796,0.134,1.04-0.081,1.293-0.684c0.259-0.617,1.389-4.361,1.861-4.592c0.229-0.112,2.847,0.589,2.99,0.801
			c0.294,0.437-0.601,4.244-0.685,4.908c-0.082,0.649,0.023,0.959,0.779,1.241c0.51,0.195,1.012,0.403,1.507,0.623
			c0.733,0.335,1.025,0.191,1.426-0.327c0.41-0.529,2.47-3.854,2.986-3.954c0.251-0.049,2.598,1.306,2.681,1.548
			c0.171,0.497-1.678,3.943-1.931,4.563c-0.248,0.605-0.227,0.933,0.431,1.4c0.442,0.321,0.874,0.651,1.295,0.992
			c0.622,0.514,0.94,0.449,1.462,0.053c0.533-0.405,3.383-3.083,3.907-3.046c0.255,0.018,2.171,1.934,2.189,2.189
			c0.036,0.525-2.642,3.375-3.047,3.908c-0.396,0.521-0.46,0.843,0.055,1.464c0.345,0.424,0.675,0.855,0.993,1.292
			c0.469,0.658,0.793,0.678,1.398,0.431c0.619-0.253,4.065-2.103,4.563-1.932c0.242,0.083,1.598,2.43,1.549,2.682
			c-0.102,0.516-3.426,2.576-3.955,2.986c-0.517,0.401-0.662,0.695-0.326,1.429c0.223,0.499,0.432,1,0.625,1.506
			c0.282,0.756,0.59,0.859,1.239,0.777c0.664-0.084,4.472-0.978,4.907-0.684c0.212,0.143,0.914,2.76,0.801,2.99
			c-0.23,0.473-3.975,1.602-4.592,1.861c-0.604,0.253-0.819,0.5-0.686,1.296c0.086,0.539,0.158,1.078,0.215,1.616
			c0.076,0.803,0.348,0.983,0.995,1.071c0.663,0.091,4.572,0.212,4.917,0.609c0.168,0.193,0.168,2.903,0,3.096
			c-0.345,0.396-4.254,0.519-4.917,0.608c-0.647,0.089-0.921,0.271-0.997,1.074c-0.057,0.544-0.127,1.082-0.211,1.617
			c-0.135,0.795,0.08,1.039,0.684,1.293c0.617,0.259,4.361,1.388,4.592,1.86c0.113,0.229-0.588,2.848-0.801,2.99
			c-0.436,0.294-4.243-0.601-4.907-0.685c-0.649-0.082-0.96,0.023-1.241,0.779c-0.195,0.511-0.403,1.013-0.623,1.508
			c-0.336,0.733-0.19,1.024,0.326,1.425c0.529,0.41,3.854,2.47,3.955,2.986c0.049,0.251-1.307,2.598-1.549,2.681
			c-0.497,0.172-3.943-1.678-4.563-1.931c-0.605-0.247-0.934-0.226-1.4,0.432c-0.321,0.442-0.651,0.873-0.992,1.294
			c-0.514,0.622-0.449,0.941-0.054,1.462c0.405,0.532,3.083,3.383,3.046,3.907c-0.018,0.256-1.934,2.172-2.188,2.189
			c-0.524,0.037-3.375-2.642-3.907-3.047c-0.521-0.396-0.844-0.459-1.465,0.055c-0.424,0.345-0.855,0.676-1.293,0.994
			c-0.658,0.467-0.678,0.792-0.431,1.397c0.254,0.62,2.103,4.065,1.932,4.563c-0.083,0.242-2.43,1.597-2.682,1.547
			c-0.516-0.1-2.575-3.424-2.985-3.953c-0.401-0.518-0.695-0.662-1.429-0.327c-0.499,0.224-1.001,0.431-1.506,0.626
			c-0.757,0.281-0.86,0.59-0.777,1.238c0.084,0.664,0.979,4.472,0.685,4.907c-0.144,0.213-2.761,0.914-2.991,0.802
			c-0.473-0.23-1.602-3.975-1.86-4.592c-0.254-0.604-0.5-0.82-1.296-0.686c-0.539,0.086-1.078,0.157-1.616,0.215
			c-0.804,0.076-0.983,0.347-1.071,0.994c-0.091,0.664-0.212,4.572-0.609,4.918c-0.193,0.168-2.902,0.168-3.096,0
			c-0.397-0.346-0.519-4.254-0.609-4.918c-0.088-0.647-0.271-0.92-1.073-0.996c-0.544-0.057-1.082-0.13-1.617-0.214
			c-0.796-0.134-1.039,0.083-1.292,0.687c-0.26,0.617-1.389,4.361-1.861,4.592c-0.23,0.112-2.848-0.589-2.99-0.802
			c-0.294-0.436,0.6-4.243,0.685-4.907c0.082-0.648-0.023-0.959-0.779-1.24c-0.511-0.195-1.013-0.403-1.508-0.623
			c-0.733-0.336-1.024-0.191-1.425,0.326c-0.41,0.529-2.471,3.854-2.986,3.954c-0.251,0.049-2.598-1.306-2.682-1.548
			c-0.171-0.498,1.679-3.943,1.932-4.563c0.247-0.605,0.226-0.933-0.432-1.4c-0.442-0.32-0.873-0.651-1.295-0.991
			c-0.621-0.514-0.94-0.449-1.461-0.054c-0.533,0.405-3.383,3.083-3.907,3.046c-0.256-0.018-2.172-1.934-2.189-2.189
			c-0.037-0.523,2.642-3.374,3.046-3.907c0.396-0.521,0.46-0.843-0.054-1.464c-0.345-0.425-0.676-0.855-0.994-1.293
			c-0.468-0.658-0.792-0.678-1.397-0.43c-0.62,0.253-4.066,2.102-4.563,1.931c-0.242-0.083-1.597-2.43-1.548-2.681
			c0.101-0.517,3.425-2.576,3.954-2.986c0.517-0.4,0.662-0.695,0.327-1.429c-0.224-0.499-0.43-1.002-0.624-1.507
			c-0.281-0.756-0.592-0.859-1.24-0.776c-0.664,0.084-4.472,0.979-4.907,0.685c-0.213-0.144-0.914-2.761-0.802-2.99
			c0.23-0.473,3.975-1.603,4.592-1.861c0.604-0.254,0.82-0.5,0.686-1.295c-0.086-0.54-0.157-1.079-0.214-1.617
			c-0.076-0.803-0.348-0.982-0.996-1.071c-0.663-0.091-4.572-0.212-4.917-0.608c-0.168-0.193-0.168-2.903,0-3.097
			c0.345-0.396,4.254-0.519,4.917-0.609c0.648-0.088,0.921-0.271,0.997-1.074c0.057-0.543,0.128-1.082,0.212-1.617
			c0.134-0.795-0.081-1.039-0.685-1.292c-0.617-0.259-4.361-1.388-4.592-1.861c-0.112-0.23,0.589-2.848,0.802-2.99
			c0.436-0.294,4.243,0.6,4.907,0.684c0.648,0.083,0.959-0.023,1.241-0.779c0.194-0.511,0.402-1.013,0.622-1.507
			c0.336-0.734,0.19-1.025-0.326-1.426c-0.529-0.41-3.854-2.47-3.954-2.986c-0.049-0.251,1.306-2.598,1.548-2.681
			c0.497-0.171,3.943,1.678,4.563,1.931c0.605,0.248,0.933,0.226,1.4-0.432C40.282,46.371,40.615,45.941,40.955,45.521z"/>
	</g>
	<g>
		<g>
			<circle fill-rule="evenodd" clip-rule="evenodd" fill="#FFFFFF" cx="65.001" cy="65" r="18.406"/>
			
				<circle fill-rule="evenodd" clip-rule="evenodd" fill="none" stroke="#FFFFFF" stroke-width="0" stroke-miterlimit="3.8637" cx="65.001" cy="65" r="18.406"/>
		</g>
	</g>
	<g>
		<g>
			<path fill-rule="evenodd" clip-rule="evenodd" fill="#FFFFFF" d="M15.844,88.543c0.794-0.146,0.918-0.431,0.949-1.084
				c0.032-0.669-0.187-4.574,0.179-4.952c0.178-0.185,2.877-0.42,3.084-0.27c0.425,0.31,0.887,4.192,1.035,4.845
				c0.145,0.639,0.35,0.895,1.156,0.9c0.547,0.009,1.09,0.032,1.63,0.069c0.804,0.064,1.027-0.171,1.228-0.794
				c0.204-0.638,1.003-4.466,1.453-4.736c0.22-0.133,2.889,0.338,3.05,0.537c0.33,0.408-0.229,4.279-0.255,4.948
				c-0.025,0.653,0.107,0.954,0.885,1.169c0.525,0.149,1.044,0.313,1.556,0.488c0.76,0.271,1.038,0.102,1.392-0.449
				c0.362-0.563,2.125-4.054,2.63-4.199c0.246-0.07,2.702,1.074,2.806,1.309c0.215,0.48-1.327,4.074-1.525,4.714
				c-0.194,0.625-0.145,0.949,0.552,1.357c0.469,0.281,0.927,0.573,1.376,0.875c0.664,0.458,0.976,0.366,1.461-0.073
				c0.495-0.451,3.101-3.367,3.627-3.376c0.256-0.005,2.331,1.737,2.371,1.99c0.083,0.52-2.337,3.592-2.694,4.158
				c-0.349,0.554-0.385,0.88,0.182,1.454c0.381,0.393,0.748,0.793,1.104,1.201c0.522,0.614,0.848,0.605,1.43,0.307
				c0.595-0.307,3.867-2.449,4.377-2.322c0.249,0.063,1.803,2.282,1.776,2.537c-0.056,0.522-3.188,2.864-3.679,3.319
				c-0.48,0.444-0.6,0.749-0.201,1.451c0.266,0.478,0.517,0.96,0.754,1.446c0.347,0.729,0.663,0.805,1.302,0.666
				c0.654-0.143,4.369-1.365,4.829-1.109c0.224,0.123,1.151,2.67,1.059,2.908c-0.188,0.491-3.819,1.943-4.412,2.254
				c-0.579,0.306-0.772,0.57-0.569,1.352c0.133,0.529,0.25,1.06,0.354,1.591c0.146,0.794,0.431,0.949,1.085,0.98
				c0.668,0.032,4.572-0.187,4.951,0.179c0.185,0.178,0.42,2.877,0.27,3.084c-0.309,0.426-4.202,0.891-4.854,1.039l-3.301-0.68
				c-0.233-5.229-1.938-10.457-5.164-15.063c-6.532-9.329-17.637-13.552-28.164-11.763L15.844,88.543z"/>
		</g>
	</g>
	<g>
		<g>
			<path fill-rule="evenodd" clip-rule="evenodd" fill="#FFFFFF" d="M109.6,33.636l4.762,6.864
				c-11.139,11.14-11.202,29.199-0.063,40.339c0.849,0.849,1.737,1.633,2.66,2.353l-0.613,2.505c-0.442-0.32-0.939-0.64-1.359-0.98
				c-0.623-0.515-0.941-0.45-1.462-0.054c-0.533,0.404-3.384,3.083-3.907,3.047c-0.256-0.019-2.172-1.935-2.189-2.189
				c-0.037-0.525,2.641-3.375,3.046-3.908c0.396-0.521,0.46-0.842-0.054-1.465c-0.345-0.424-0.676-0.854-0.994-1.292
				c-0.468-0.657-0.792-0.678-1.397-0.431c-0.62,0.254-4.065,2.103-4.563,1.932c-0.242-0.083-1.597-2.43-1.548-2.682
				c0.101-0.516,3.425-2.575,3.954-2.985c0.518-0.401,0.662-0.694,0.326-1.429c-0.223-0.499-0.429-1.002-0.623-1.507
				c-0.281-0.757-0.592-0.858-1.24-0.776c-0.664,0.084-4.472,0.979-4.908,0.685c-0.212-0.144-0.913-2.761-0.801-2.991
				c0.23-0.473,3.975-1.602,4.592-1.86c0.604-0.253,0.82-0.5,0.686-1.295c-0.086-0.54-0.157-1.079-0.215-1.617
				c-0.076-0.803-0.347-0.983-0.995-1.071c-0.663-0.091-4.572-0.212-4.917-0.609c-0.168-0.193-0.168-2.903,0-3.096
				c0.345-0.396,4.254-0.519,4.918-0.609c0.647-0.088,0.92-0.271,0.996-1.074c0.057-0.543,0.127-1.082,0.212-1.617
				c0.134-0.795-0.081-1.039-0.685-1.292c-0.617-0.259-4.361-1.389-4.592-1.861c-0.112-0.23,0.589-2.847,0.801-2.99
				c0.437-0.294,4.244,0.6,4.908,0.685c0.648,0.082,0.959-0.023,1.24-0.779c0.195-0.511,0.403-1.013,0.623-1.507
				c0.336-0.734,0.191-1.025-0.326-1.425c-0.529-0.41-3.854-2.47-3.954-2.986c-0.049-0.251,1.306-2.598,1.548-2.681
				c0.498-0.171,3.943,1.678,4.563,1.931c0.606,0.248,0.934,0.227,1.401-0.432c0.32-0.442,0.653-0.872,0.993-1.293
				c0.514-0.622,0.448-0.942,0.053-1.462c-0.405-0.533-3.084-3.383-3.047-3.908C107.445,35.564,109.345,33.653,109.6,33.636z"/>
		</g>
	</g>
	<g>
		<path fill="#FFFFFF" d="M10.813,65c0,29.928,24.261,54.188,54.188,54.188c29.928,0,54.188-24.26,54.188-54.188
			c0-29.927-24.26-54.188-54.188-54.188C35.073,10.813,10.813,35.073,10.813,65z M5,65C5,31.862,31.862,5,65,5s60,26.862,60,60
			s-26.862,60-60,60S5,98.138,5,65z"/>
		<path fill="none" stroke="#FFFFFF" stroke-width="0" stroke-miterlimit="3.8637" d="M10.813,65
			c0,29.928,24.261,54.188,54.188,54.188c29.928,0,54.188-24.26,54.188-54.188c0-29.927-24.26-54.188-54.188-54.188
			C35.073,10.813,10.813,35.073,10.813,65z M5,65C5,31.862,31.862,5,65,5s60,26.862,60,60s-26.862,60-60,60S5,98.138,5,65z"/>
	</g>
</g>
</svg>
